<?xml version="1.0" encoding="UTF-8" standalone="no"?>
<svg
   version="1.1"
   id="Layer_1"
   width="70"
   height="76"
   xmlns="http://www.w3.org/2000/svg"
   xmlns:svg="http://www.w3.org/2000/svg">
  <defs
     id="defs3" />
  <g
     id="g3"
     transform="translate(4.5747801)"
     style="fill:#ffffff;fill-opacity:1">
    <path
       class="st0"
       d="m 59.5,43.9 c -0.4,0.1 -0.9,0.4 -1.3,0.8 -1.4,1.7 -1.8,2 -2.7,2.4 -1.2,0.5 -2.3,-0.2 -4.2,-1.9 -2.9,-2.6 -4.4,-4.5 -6.4,-2.2 -2,2.3 -5.9,7.1 -9.4,4.9 C 32,45.7 31,42.4 21.9,45.2 c -1.2,0.4 -2.5,0.9 -3.8,1.6 -4.7,2.9 -7.2,5.3 -9.5,7.5 -0.8,0.8 -1.6,1.5 -2.4,2.3 -0.3,0.3 -1,1 -1.6,1.6 -0.5,0.5 -1,1 -1.3,1.3 -0.2,0.1 -0.3,0.3 -0.5,0.4 -0.2,0.2 -0.4,0.4 -0.6,0.6 -0.2,0.2 -0.4,0.3 -0.6,0.4 8.6,6 7.3,6.8 9.6,4 6.3,-7.4 13.3,-15.2 19.3,-16.2 5,-0.9 6,4.3 10.2,3.1 4.8,-1.3 5.8,-9.6 9.2,-6.5 4.5,4.1 5.1,4.1 6.4,3.2 0.9,-0.7 1.3,-1.3 2.2,-2.6 0.5,-0.7 0.9,-1.9 2,-1.2 1.4,0.9 -0.1,-0.9 -1,-0.8 z"
       id="path1"
       style="fill:#ffffff;fill-opacity:1" />
    <path
       class="st0"
       d="m 59.4,47.3 c -0.3,0.1 -0.5,0.1 -0.8,0.6 -1.1,1.7 -1.8,2.7 -2.5,3.1 -1,0.5 -1.4,0.5 -3.1,-1.1 -2.6,-2.5 -3.9,-3.7 -5.4,-1.4 -1.5,2.3 -6.3,8 -9.3,6 -3,-2.1 -5.4,-4.1 -10.6,-1.6 -5.2,2.6 -9.6,7.9 -12.6,11.8 -2.1,2.7 -3.3,3.9 -3.3,3.9 5.3,4.1 5.3,3.8 6.7,1.5 4.7,-7.5 9.7,-13.6 14.5,-14.6 4.9,-1 5.7,3.6 9,2.4 4.7,-1.7 6.6,-10.4 9.7,-7.5 3.5,3.2 4.2,2.9 5.2,1.9 0.7,-0.7 1.4,-2 2.1,-3.4 0.3,-0.7 0.3,-1.2 1.4,-0.8 1.3,0.6 -0.3,-1 -1,-0.8 z"
       id="path2"
       style="fill:#ffffff;fill-opacity:1" />
    <path
       class="st0"
       d="m 0.7,59.6 c 0.1,0 0.2,0.1 0.5,-0.2 C 1.4,59.2 1.6,59 1.9,58.8 2.1,58.7 2.2,58.5 2.4,58.4 2.6,58.2 3.1,57.7 3.6,57.2 4.3,56.5 5,55.8 5.3,55.5 6.1,54.8 6.9,54.1 7.6,53.3 10,51 12.4,48.7 17.1,45.8 V 4.8 H 0 v 52.5 c 0,0.2 0,1.1 0.1,1.8 0.1,0.2 0.3,0.4 0.6,0.5 z"
       id="path3"
       style="fill:#ffffff;fill-opacity:1" />
  </g>
</svg>
