<?xml version="1.0" encoding="UTF-8" standalone="no"?>
<svg
   version="1.1"
   id="svg1"
   width="441"
   height="108"
   xmlns="http://www.w3.org/2000/svg"
   xmlns:svg="http://www.w3.org/2000/svg">
  <defs
     id="defs1" />
  <g
     id="g59"
     transform="translate(17.147818,11.22554)"
     style="fill:#b71f36;fill-opacity:1">
    <g
       id="g56"
       style="fill:#b71f36;fill-opacity:1">
      <g
         id="g48"
         style="fill:#b71f36;fill-opacity:1">
        <g
           id="g47"
           style="fill:#b71f36;fill-opacity:1">
          <path
             class="st0"
             d="m 88.7,46.5 c 4.2,0 7.1,2.2 7.1,6.6 0,3.3 -1.5,5.2 -4.2,6 3.1,0.7 5,2.8 5,6.3 0,4.4 -2.8,6.9 -7.9,6.9 H 78.2 V 46.5 Z m -9,12 h 9.1 c 3.2,0 5.6,-1.6 5.6,-5.2 C 94.4,49.7 92,48 88.8,48 h -9.1 z m 0,12.4 h 8.9 c 4.3,0 6.5,-1.9 6.5,-5.6 0,-3.6 -2.3,-5.6 -6.9,-5.6 h -8.5 z"
             id="path30"
             style="fill:#b71f36;fill-opacity:1" />
          <path
             class="st0"
             d="m 101.7,63.5 c 0.3,5.3 3.2,7.9 6.6,7.9 2.4,0 4.4,-1.3 5.5,-2.8 l 0.9,0.8 c -1,1.5 -3,3.4 -6.4,3.4 -4.4,0 -8,-3.4 -8,-10.1 0,-6.4 3.2,-9.9 7.8,-9.9 4.6,0 7.8,3.5 7.8,10.1 0,0.3 0,0.5 0,0.7 h -14.2 z m 0,-1.2 h 12.9 c -0.2,-5.4 -2.8,-8.2 -6.4,-8.2 -3.8,0 -6.4,2.9 -6.5,8.2 z"
             id="path31"
             style="fill:#b71f36;fill-opacity:1" />
          <path
             class="st0"
             d="m 122.2,53.2 v 3.5 c 1.4,-2.5 3.5,-3.9 6.5,-3.9 2.9,0 5.1,1.3 5.9,4.5 1.3,-2.9 3.7,-4.5 6.8,-4.5 3.7,0 6.3,2.1 6.3,7.5 v 12.1 h -1.5 v -12 c 0,-4.4 -2,-6.1 -5.1,-6.1 -2.9,0 -5,1.5 -6.3,4.7 0,0.4 0.1,0.9 0.1,1.4 v 12.1 h -1.4 v -12 c 0,-4.4 -2,-6.1 -5.1,-6.1 -2.8,0 -4.9,1.5 -6.1,4.5 v 13.7 h -1.5 V 53.2 Z"
             id="path32"
             style="fill:#b71f36;fill-opacity:1" />
          <path
             class="st0"
             d="m 155,47.6 c 0,0.7 -0.4,1.2 -1,1.2 -0.6,0 -1,-0.5 -1,-1.2 0,-0.7 0.4,-1.2 1,-1.2 0.6,0 1,0.5 1,1.2 z m -0.2,5.6 v 19.1 h -1.5 V 53.2 Z"
             id="path33"
             style="fill:#b71f36;fill-opacity:1" />
          <path
             class="st0"
             d="m 172.7,57.1 c -1.2,-1.5 -3.3,-3 -6.4,-3 -3.3,0 -5.3,1.7 -5.3,3.9 0,1.5 0.8,2.3 2.2,2.8 2.2,0.9 5,0.9 7.5,1.9 2,0.9 3,2.1 3,4.2 0,4 -3.5,5.8 -7.4,5.8 -3.4,0 -6,-1.4 -7.4,-3.1 l 0.7,-1.3 c 1.3,1.6 3.6,3 6.7,3 3.2,0 6,-1.5 6,-4.4 0,-1.5 -0.7,-2.5 -2.4,-3.1 -2.2,-0.9 -5.2,-0.9 -7.4,-1.9 -1.7,-0.7 -2.8,-2 -2.8,-4 0,-3.1 2.6,-5.2 6.7,-5.2 3.5,0 5.9,1.6 7,3.1 z"
             id="path34"
             style="fill:#b71f36;fill-opacity:1" />
          <path
             class="st0"
             d="m 197.2,46.5 c 4.8,0 8,2.7 8,7.9 0,5.2 -3.1,7.9 -8,7.9 h -8.8 v 10 H 187 V 46.5 Z m -8.7,14.4 h 8.8 c 4,0 6.5,-2.1 6.5,-6.4 0,-4.3 -2.6,-6.5 -6.5,-6.5 h -8.8 z"
             id="path35"
             style="fill:#b71f36;fill-opacity:1" />
          <path
             class="st0"
             d="m 211.1,53.2 v 12.1 c 0,4.3 2.2,6.1 5.6,6.1 3.2,0 5.4,-1.5 6.8,-4.7 V 53.2 h 1.4 v 19.1 h -1.4 v -3.6 c -1.5,2.6 -3.9,4.1 -7.1,4.1 -4,0 -6.8,-2.1 -6.8,-7.3 V 53.2 Z"
             id="path36"
             style="fill:#b71f36;fill-opacity:1" />
          <path
             class="st0"
             d="m 232.2,44.8 v 12 c 1.3,-2.2 3.4,-4 6.7,-4 5.6,0 7.6,5 7.6,10 0,5.1 -2,10 -7.6,10 -3.4,0 -5.5,-1.8 -6.8,-4 v 3.6 h -1.4 v -27 z m 0,13.9 v 8.2 c 1.3,2.8 3.3,4.5 6.4,4.5 4.9,0 6.5,-4.2 6.5,-8.6 0,-4.4 -1.6,-8.6 -6.4,-8.6 -3.3,-0.1 -5.3,1.9 -6.5,4.5 z"
             id="path37"
             style="fill:#b71f36;fill-opacity:1" />
          <path
             class="st0"
             d="m 253.1,44.8 v 27.5 h -1.5 v -27 z"
             id="path38"
             style="fill:#b71f36;fill-opacity:1" />
          <path
             class="st0"
             d="m 260.6,47.6 c 0,0.7 -0.4,1.2 -1,1.2 -0.6,0 -1,-0.5 -1,-1.2 0,-0.7 0.4,-1.2 1,-1.2 0.6,0 1,0.5 1,1.2 z m -0.3,5.6 v 19.1 h -1.5 V 53.2 Z"
             id="path39"
             style="fill:#b71f36;fill-opacity:1" />
          <path
             class="st0"
             d="m 279.3,57.6 c -1.1,-2.3 -3,-3.4 -5.5,-3.4 -3.9,0 -6.9,2.9 -6.9,8.6 0,5.7 3,8.6 6.6,8.6 2.7,0 4.6,-1.6 5.7,-3.4 l 1.1,0.8 c -0.8,1.4 -2.9,4 -6.8,4 -4.4,0 -8,-3.5 -8,-10 0,-6.5 3.6,-10 8.3,-10 3.4,0 5.6,1.7 6.6,4 z"
             id="path40"
             style="fill:#b71f36;fill-opacity:1" />
          <path
             class="st0"
             d="m 295.2,46.5 v 24.3 h 14.4 v 1.5 H 293.7 V 46.5 Z"
             id="path41"
             style="fill:#b71f36;fill-opacity:1" />
          <path
             class="st0"
             d="m 315.3,47.6 c 0,0.7 -0.4,1.2 -1,1.2 -0.6,0 -1,-0.5 -1,-1.2 0,-0.7 0.4,-1.2 1,-1.2 0.6,0 1,0.5 1,1.2 z m -0.2,5.6 v 19.1 h -1.5 V 53.2 Z"
             id="path42"
             style="fill:#b71f36;fill-opacity:1" />
          <path
             class="st0"
             d="m 322.3,44.8 v 12 c 1.3,-2.2 3.4,-4 6.7,-4 5.6,0 7.6,5 7.6,10 0,5.1 -2,10 -7.6,10 -3.4,0 -5.5,-1.8 -6.8,-4 v 3.6 h -1.4 v -27 z m 0,13.9 v 8.2 c 1.3,2.8 3.3,4.5 6.4,4.5 4.9,0 6.5,-4.2 6.5,-8.6 0,-4.4 -1.6,-8.6 -6.4,-8.6 -3.3,-0.1 -5.3,1.9 -6.5,4.5 z"
             id="path43"
             style="fill:#b71f36;fill-opacity:1" />
          <path
             class="st0"
             d="m 352.9,55.2 c -0.8,-0.8 -1.9,-1 -3.2,-1 -2.9,0 -5.1,1.3 -6.6,4.6 v 13.6 h -1.5 V 53.2 h 1.4 v 3.5 c 1.5,-2.5 3.7,-3.9 6.7,-3.9 1.8,0 2.9,0.4 3.6,1.1 z"
             id="path44"
             style="fill:#b71f36;fill-opacity:1" />
          <path
             class="st0"
             d="m 357,54.8 c 1.4,-1 3.5,-2 6.6,-2 4.2,0 7.2,1.8 7.2,7.2 v 12.4 h -1.4 v -1.9 c -1.8,1.4 -4.2,2.2 -6.7,2.2 -3.9,0 -7,-1.9 -7,-6.2 0,-4.3 3.2,-6.4 7.5,-6.4 2.1,0 4.5,0.5 6.2,1.5 V 60 c 0,-4.4 -2.4,-5.9 -5.9,-5.9 -2.4,0 -4.1,0.6 -5.9,1.8 z m 12.3,14.4 v -6.5 c -1.8,-1 -4.2,-1.4 -6,-1.4 -3.7,0 -6.4,1.7 -6.4,5.1 0,3.4 2.6,4.9 5.9,4.9 2.3,0 4.6,-0.7 6.5,-2.1 z"
             id="path45"
             style="fill:#b71f36;fill-opacity:1" />
          <path
             class="st0"
             d="m 387.6,55.2 c -0.8,-0.8 -1.9,-1 -3.2,-1 -2.9,0 -5.1,1.3 -6.6,4.6 v 13.6 h -1.5 V 53.2 h 1.4 v 3.5 c 1.5,-2.5 3.7,-3.9 6.7,-3.9 1.8,0 2.9,0.4 3.6,1.1 z"
             id="path46"
             style="fill:#b71f36;fill-opacity:1" />
          <path
             class="st0"
             d="m 391.8,53.2 7.2,17.3 7.5,-17.3 h 1.5 l -11.2,25.9 h -1.5 l 3,-6.9 -8,-19 z"
             id="path47"
             style="fill:#b71f36;fill-opacity:1" />
        </g>
      </g>
      <g
         id="g55"
         style="fill:#b71f36;fill-opacity:1">
        <path
           class="st0"
           d="m 85.4,26.7 c 0,2.6 1.1,3 4.6,3 4.7,0 5.2,-2.3 6.7,-6.4 h 1.6 l -0.5,8.3 H 75.6 V 30 c 2.9,-0.1 3.3,-0.3 3.3,-2.4 V 7 C 78.9,4.9 78.6,4.7 75.6,4.6 V 3 H 89.2 V 4.6 C 85.8,4.7 85.5,4.9 85.5,7 v 19.7 z"
           id="path48"
           style="fill:#b71f36;fill-opacity:1" />
        <path
           class="st0"
           d="m 102.7,15.8 c 0,-1.7 -0.3,-2 -1,-2.1 l -1.4,-0.2 V 12 l 8.4,-1.2 0.3,0.2 v 16.9 c 0,1.7 0.3,1.9 2.7,2 v 1.6 H 100 v -1.6 c 2.3,-0.1 2.7,-0.3 2.7,-2 z M 101.9,5.4 c 0,-1.9 1.4,-3.6 3.7,-3.6 2.3,0 3.8,1.6 3.8,3.6 0,2 -1.5,3.6 -3.8,3.6 -2.3,0 -3.7,-1.7 -3.7,-3.6 z"
           id="path49"
           style="fill:#b71f36;fill-opacity:1" />
        <path
           class="st0"
           d="m 139.3,28.4 c -0.6,0.2 -1.4,0.4 -2.3,0.4 -1.6,0 -2.6,-1.2 -2.6,-3.8 V 13.3 h 4.3 v -2 h -4.3 V 5 h -4 l -2,6.3 h -2.6 -4.9 V 5 h -4 l -2,6.3 h -2.6 v 2 h 2.4 v 13.3 c 0,3.8 2.8,5.3 5.1,5.3 1.7,0 4.2,-0.8 6.6,-2.2 l -0.5,-1.3 c -0.6,0.2 -1.4,0.4 -2.3,0.4 C 122,28.8 121,27.6 121,25 V 13.3 h 4.9 2.4 v 13.3 c 0,3.8 2.8,5.3 5.1,5.3 1.7,0 4.2,-0.8 6.6,-2.2 z"
           id="path50"
           style="fill:#b71f36;fill-opacity:1" />
        <path
           class="st0"
           d="m 180.9,13.4 v 11.7 c 0,2.6 1.1,3.8 2.6,3.8 0.9,0 1.8,-0.2 2.3,-0.4 l 0.5,1.3 c -2.3,1.4 -4.9,2.2 -6.6,2.2 -2.3,0 -5.1,-1.6 -5.1,-5.3 V 13.4 h -2.4 v -2 h 2.6 l 2,-6.3 h 4 v 6.3 h 4.3 v 2 z"
           id="path51"
           style="fill:#b71f36;fill-opacity:1" />
        <path
           class="st0"
           d="m 149.4,28 c 0,1.7 0.3,1.9 2.7,2 v 1.6 H 140.5 V 30 c 2.3,-0.1 2.7,-0.3 2.7,-2 V 6 c 0,-1.6 -0.3,-2 -1,-2.1 L 140.8,3.7 V 2.1 l 8.4,-1.1 0.3,0.2 V 28 Z"
           id="path52"
           style="fill:#b71f36;fill-opacity:1" />
        <path
           class="st0"
           d="m 158.9,19.2 c 0,-3 0.8,-6.4 3.5,-6.4 2.5,0 2.9,3.1 2.9,5.1 0,1.1 -0.3,1.4 -1.3,1.4 h -5.1 z m 11,6 c -1.2,2.3 -3,3.6 -5.5,3.6 -4.1,0 -5.5,-3.4 -5.5,-7.7 h 10.6 c 1.5,0 2.2,-0.4 2.2,-1.7 0,-3.4 -1.3,-8.6 -9.2,-8.6 -7.4,0 -10.2,4.8 -10.2,10.6 0,5.6 2.4,10.6 10.1,10.6 4.9,0 7.6,-2.4 8.9,-6 z"
           id="path53"
           style="fill:#b71f36;fill-opacity:1" />
        <path
           class="st0"
           d="m 192.9,21.5 c 0,-5.5 1.2,-8.7 4.1,-8.7 2.9,0 4.1,3.2 4.1,8.7 0,5.5 -1.2,8.7 -4.1,8.7 -2.9,-0.1 -4.1,-3.2 -4.1,-8.7 z M 197,10.9 c -7.5,0 -10.7,4 -10.7,10.6 0,6.6 3.2,10.6 10.7,10.6 7.4,0 10.6,-4 10.6,-10.6 0,-6.6 -3.1,-10.6 -10.6,-10.6 z"
           id="path54"
           style="fill:#b71f36;fill-opacity:1" />
        <path
           class="st0"
           d="m 230,28 c 0,1.7 0.3,1.9 2.7,2 v 1.6 H 221.6 V 30 l 0.9,-0.1 c 0.9,-0.1 1.3,-0.3 1.3,-1.6 V 17.8 c -0.1,-2.5 -1.2,-3.7 -3.3,-3.7 -1.7,0 -2.8,0.9 -3.4,2 -0.3,0.6 -0.4,1.5 -0.4,2.4 v 9.8 c 0,1.4 0.5,1.6 1.3,1.6 l 0.9,0.1 v 1.6 H 207.8 V 30 c 2.3,-0.1 2.7,-0.3 2.7,-2 V 15.9 c 0,-1.6 -0.3,-2 -1,-2.1 l -1.4,-0.2 v -1.5 l 8.1,-1.2 0.5,2.8 c 2.7,-1.6 4.7,-2.8 7.1,-2.8 4.2,0 6.2,2.5 6.2,6.3 z"
           id="path55"
           style="fill:#b71f36;fill-opacity:1" />
      </g>
    </g>
    <g
       id="g58"
       style="fill:#b71f36;fill-opacity:1">
      <path
         class="st0"
         d="m 59.5,43.9 c -0.4,0.1 -0.9,0.4 -1.3,0.8 -1.4,1.7 -1.8,2 -2.7,2.4 -1.2,0.5 -2.3,-0.2 -4.2,-1.9 -2.9,-2.6 -4.4,-4.5 -6.4,-2.2 -2,2.3 -5.9,7.1 -9.4,4.9 C 32,45.7 31,42.4 21.9,45.2 c -1.2,0.4 -2.5,0.9 -3.8,1.6 -4.7,2.9 -7.2,5.3 -9.5,7.5 -0.8,0.8 -1.6,1.5 -2.4,2.3 -0.3,0.3 -1,1 -1.6,1.6 -0.5,0.5 -1,1 -1.3,1.3 -0.2,0.1 -0.3,0.3 -0.5,0.4 -0.2,0.2 -0.4,0.4 -0.6,0.6 -0.2,0.2 -0.4,0.3 -0.6,0.4 8.6,6 7.3,6.8 9.6,4 6.3,-7.4 13.3,-15.2 19.3,-16.2 5,-0.9 6,4.3 10.2,3.1 4.8,-1.3 5.8,-9.6 9.2,-6.5 4.5,4.1 5.1,4.1 6.4,3.2 0.9,-0.7 1.3,-1.3 2.2,-2.6 0.5,-0.7 0.9,-1.9 2,-1.2 1.4,0.9 -0.1,-0.9 -1,-0.8 z"
         id="path56"
         style="fill:#b71f36;fill-opacity:1" />
      <path
         class="st0"
         d="m 59.4,47.3 c -0.3,0.1 -0.5,0.1 -0.8,0.6 -1.1,1.7 -1.8,2.7 -2.5,3.1 -1,0.5 -1.4,0.5 -3.1,-1.1 -2.6,-2.5 -3.9,-3.7 -5.4,-1.4 -1.5,2.3 -6.3,8 -9.3,6 -3,-2.1 -5.4,-4.1 -10.6,-1.6 -5.2,2.6 -9.6,7.9 -12.6,11.8 -2.1,2.7 -3.3,3.9 -3.3,3.9 5.3,4.1 5.3,3.8 6.7,1.5 4.7,-7.5 9.7,-13.6 14.5,-14.6 4.9,-1 5.7,3.6 9,2.4 4.7,-1.7 6.6,-10.4 9.7,-7.5 3.5,3.2 4.2,2.9 5.2,1.9 0.7,-0.7 1.4,-2 2.1,-3.4 0.3,-0.7 0.3,-1.2 1.4,-0.8 1.3,0.6 -0.3,-1 -1,-0.8 z"
         id="path57"
         style="fill:#b71f36;fill-opacity:1" />
      <path
         class="st0"
         d="m 0.7,59.6 c 0.1,0 0.2,0.1 0.5,-0.2 C 1.4,59.2 1.6,59 1.9,58.8 2.1,58.7 2.2,58.5 2.4,58.4 2.6,58.2 3.1,57.7 3.6,57.2 4.3,56.5 5,55.8 5.3,55.5 6.1,54.8 6.9,54.1 7.6,53.3 10,51 12.4,48.7 17.1,45.8 V 4.8 H 0 v 52.5 c 0,0.2 0,1.1 0.1,1.8 0.1,0.2 0.3,0.4 0.6,0.5 z"
         id="path58"
         style="fill:#b71f36;fill-opacity:1" />
    </g>
  </g>
</svg>
